# xmcd CD database file
#
# Track frame offsets:
#	150
#	47590
#	106997
#	110015
#	148547
#	188842
#	227697
#
# Disc length: 3073 seconds
#
# Revision: 0
# Processed by: cddbd v1.5PL3 Copyright (c) Steve Scherf et al.
# Submitted via: CDex 1.51
#
DISCID=590bff07
DTITLE=Art Blakey and The Jazz Messengers - live in Stockholm
DYEAR=1959
DGENRE=Jazz
TTITLE0=Blues March
TTITLE1=Lester Left Town
TTITLE2=The Theme
TTITLE3=The Summitt
TTITLE4=Along Came Betty
TTITLE5=Night in Tunisia
TTITLE6=The Theme
EXTD=YEAR: 1959
EXTT0=
EXTT1=
EXTT2=
EXTT3=
EXTT4=
EXTT5=
EXTT6=
PLAYORDER=
